<svg xmlns="http://www.w3.org/2000/svg" id="Lager_2" viewBox="0 0 576.87 88.85"><defs><style>.cls-1{fill:#edecdf;}</style></defs><g id="Lager_1-2"><path class="cls-1" d="m84.36,56.98c26.75,0,37.12-6.62,37.12-19.87s-10.75-18.87-26.12-18.87c-25.37,0-38.62,14-38.62,35.12s12.5,35.5,37,35.5c12.75,0,21.75-3.87,27.5-10.75l-1.62-1.87c-5.12,6.37-12.75,10-20.75,10-12.5,0-20.12-8.75-22.62-22.5-.25-3.12,2-6.75,8.12-6.75Zm-8.87,1.25c-.12-1.62-.12-3.25-.12-4.87,0-19.5,8.87-32.5,19.87-32.5,6.87,0,9.87,5.12,9.87,13.37,0,9.5-3.62,20.12-20.75,20.12-4.25,0-7.25,1.62-8.87,3.87Z"></path><path class="cls-1" d="m298.7,18.23c-22.87,0-38.12,14-38.12,35.12s15.37,35.5,38.12,35.5,38-14.25,38-35.5c0-19.57-15.25-35.12-38-35.12Zm0,68c-11.12,0-19.5-14.12-19.5-32.87s8.25-32.5,19.5-32.5,19.37,13.87,19.37,32.5-8.37,32.87-19.37,32.87Z"></path><path class="cls-1" d="m458.75,18.23c-22.87,0-38.12,14-38.12,35.12s15.37,35.5,38.12,35.5,38-14.25,38-35.5-15.25-35.12-38-35.12Zm0,68c-11.12,0-19.5-14.12-19.5-32.87s8.25-32.5,19.5-32.5,19.37,13.87,19.37,32.5-8.37,32.87-19.37,32.87Z"></path><path class="cls-1" d="m238.8,18.23c-13.12,0-27.12,9.87-34.62,9.87-2.25,0-3.87-.87-4.75-3-1.5-5.87-4.75-6.87-9-6.87-13.12,0-27,9.87-34.62,9.87-3.37,0-5.5-2.12-5.5-8.25v-.25h-18v67.87h0s18,0,18,0h0V29.35c1,1,2.5,1.5,4.25,1.5,7.5,0,19.75-7.5,24.62-7.5,3.12,0,3.12,3.5,3.12,14.75v49.37h18v-52.75c0-1.62,0-3-.12-4.37.75.25,1.62.37,2.62.37,7.37,0,19.75-7.37,24.62-7.37,3.12,0,3.12,3.5,3.12,14.75v49.37h18v-52.75c0-14.62-4-16.5-9.75-16.5Z"></path><path class="cls-1" d="m405.96,9.86c-1.72-1.26-3.93-1.99-6.51-1.99-4.79-.06-10.21,3.73-16.34,7.26-4.72,2.72-10.6,5.36-12.41,5.62s-3.23-.76-3.79-3.77c-.14-.75-.18-1.52-.18-2.28V0h-1.13c-3.5,10.12-17.38,19.62-23.62,19.62v2.5c4.88,0,6.75-.88,6.75,16.25v29.48c0,15,9.63,19.75,28.38,19.75v-.62c-11.38,0-10.38-8-10.38-19V22.8c.73.58,1.58.83,2.55.83,3.65,0,16.42-7.21,20.67-9.77-.56,1.35-.87,2.87-.87,4.52,0,4.04,1.66,7.22,4.46,9.01.4.26.83.48,1.28.68,1.36.6,2.92.94,4.64.94s3.34-.33,4.72-.94c2.95-1.29,4.94-3.86,5.56-7.27.14-.77.22-1.57.22-2.42,0-3.64-1.47-6.66-3.99-8.51Z"></path><path class="cls-1" d="m390.61,32.91v54.69h18v-54.69c-2.33,2.25-6.81,2.85-9,2.85s-6.67-.6-9-2.85Z"></path><path class="cls-1" d="m576.87,53.54v-18.81c0-14.62-4-16.5-9.88-16.5-13.12,0-27,9.88-34.62,9.88-3.38,0-5.5-2.12-5.5-8.25v-.25h-18.12v67.88h18.12V29.35c1,1,2.5,1.5,4.25,1.5,7.38,0,19.75-7.5,24.62-7.5,3,0,3,3.5,3,14.75v49.38h18.12v-33.94Z"></path><path class="cls-1" d="m49.01,20.41c-1.72-1.26-3.93-1.99-6.51-1.99-8.47-.1-16.5,8.94-21,8.94-2.12,0-3.38-1.88-3.38-7.5v-.25H0s0,0,0,0v67.88h18.13V29.1c.75.62,1.62.88,2.62.88,3.38,0,8-3.02,12.25-5.59-.56,1.35-.87,2.87-.87,4.52,0,4.04,1.66,7.22,4.46,9.01.4.26.83.48,1.28.68,1.36.6,2.92.94,4.64.94s3.34-.33,4.72-.94c2.95-1.29,4.94-3.86,5.56-7.27.14-.77.22-1.57.22-2.42,0-3.64-1.47-6.66-3.99-8.51Z"></path></g></svg>